<?xml version="1.0" standalone="no"?>
<!DOCTYPE svg PUBLIC "-//W3C//DTD SVG 20010904//EN"
 "http://www.w3.org/TR/2001/REC-SVG-20010904/DTD/svg10.dtd">
<svg version="1.0" xmlns="http://www.w3.org/2000/svg"
 width="1925.000000pt" height="363.000000pt" viewBox="0 0 1925.000000 363.000000"
 preserveAspectRatio="xMidYMid meet">

<g transform="translate(0.000000,363.000000) scale(0.100000,-0.100000)"
fill="#000000" stroke="none">
<path d="M5175 3345 c-281 -45 -459 -123 -621 -268 -71 -64 -168 -205 -203
-295 -35 -91 -71 -269 -71 -350 0 -77 42 -273 73 -344 53 -119 158 -249 261
-323 31 -22 56 -43 56 -47 0 -3 -18 -9 -39 -13 -21 -3 -64 -22 -95 -41 -48
-30 -69 -56 -151 -178 -79 -116 -99 -155 -114 -214 -18 -70 -18 -74 -1 -143
24 -92 57 -138 150 -209 201 -153 366 -224 665 -286 111 -23 154 -27 295 -27
141 0 183 3 292 27 216 46 329 93 468 196 155 115 246 251 296 441 38 144 39
273 1 415 -15 56 -29 108 -32 115 -4 11 9 13 67 9 l73 -5 7 -435 c7 -480 12
-524 73 -604 75 -98 163 -126 403 -126 244 0 341 31 411 134 57 83 62 127 69
611 l7 440 37 0 38 0 3 -150 c4 -167 33 -316 88 -455 98 -245 316 -460 549
-543 100 -36 247 -67 345 -74 63 -4 106 0 202 20 68 14 144 35 169 47 28 12
51 17 58 12 32 -26 152 -42 303 -42 198 0 280 16 353 72 27 21 50 34 50 29 0
-17 96 -70 156 -85 86 -22 372 -22 458 0 78 19 145 64 183 123 55 82 61 134
69 588 3 226 9 415 13 421 3 5 26 20 51 33 41 22 57 24 195 25 91 0 168 5 195
13 100 29 181 120 199 225 16 87 14 398 -3 469 -37 159 -164 236 -388 237 -96
0 -268 -29 -363 -62 -34 -12 -46 -11 -80 1 -30 12 -98 16 -276 19 -254 4 -330
-6 -391 -50 -28 -19 -28 -19 -61 0 -70 44 -144 54 -381 50 -192 -3 -228 -6
-278 -24 -55 -20 -57 -20 -102 -2 -25 9 -94 27 -153 39 -136 27 -240 22 -406
-20 -142 -36 -234 -79 -350 -166 -48 -36 -89 -65 -91 -65 -2 0 -7 15 -10 33
-8 44 -58 111 -110 147 -49 33 -143 60 -210 60 l-46 0 0 54 c0 183 -84 315
-225 352 -72 20 -480 19 -554 -1 -142 -37 -220 -155 -221 -332 l0 -63 -54 0
c-30 0 -66 -4 -80 -10 -30 -11 -31 -9 -14 70 23 115 -25 235 -127 312 -214
162 -745 267 -1080 213z m517 -249 c105 -19 274 -73 355 -115 56 -28 113 -80
113 -102 0 -9 -21 -66 -88 -242 -29 -77 -63 -111 -102 -104 -14 3 -68 23 -120
44 -131 55 -261 84 -402 91 -134 5 -213 -7 -295 -45 -83 -40 -133 -118 -133
-210 0 -133 119 -207 501 -313 218 -60 315 -92 389 -131 149 -77 246 -179 293
-307 31 -86 30 -272 -1 -364 -83 -240 -323 -404 -659 -449 -175 -23 -435 4
-618 66 -190 64 -435 224 -435 283 0 22 144 242 173 264 34 27 69 21 138 -24
96 -62 234 -125 324 -149 103 -26 298 -36 388 -19 95 18 166 62 196 123 22 45
23 52 12 102 -21 95 -80 129 -366 209 -395 112 -547 185 -680 328 -111 118
-161 259 -152 433 8 163 58 288 162 402 114 127 295 213 508 243 91 13 398 4
499 -14z m1551 -168 c44 -23 46 -34 47 -230 l0 -188 169 0 c155 0 170 -2 195
-21 l26 -20 0 -178 c0 -233 15 -217 -220 -226 -96 -4 -176 -8 -177 -9 -2 -2
-23 -1003 -23 -1099 0 -16 -10 -38 -25 -52 -24 -25 -26 -25 -204 -25 -172 0
-181 1 -206 23 l-26 22 -9 485 c-5 267 -10 520 -10 563 l0 77 -178 0 c-243 0
-236 -9 -230 262 3 150 4 158 27 182 l24 26 174 0 173 0 0 188 c0 200 2 207
50 225 31 11 401 7 423 -5z m3735 -400 c21 -21 22 -27 22 -213 0 -250 7 -239
-144 -230 -235 14 -415 -60 -489 -200 -20 -38 -21 -62 -31 -502 -10 -422 -13
-464 -29 -480 -15 -16 -41 -18 -205 -21 -256 -4 -235 -26 -243 250 -4 117 -13
467 -20 777 l-13 564 23 18 c21 17 44 19 244 19 261 0 257 1 257 -93 l0 -60
55 52 c105 99 291 156 475 144 58 -3 80 -9 98 -25z m-2179 -21 c93 -33 172
-87 214 -145 l32 -44 3 78 c4 117 -4 114 262 114 260 0 264 -2 265 -91 0 -80
-15 -766 -25 -1154 l-10 -340 -25 -22 c-25 -22 -34 -23 -203 -23 -224 0 -222
-1 -222 111 0 83 -7 96 -30 53 -8 -14 -35 -43 -60 -64 -179 -149 -424 -180
-674 -86 -227 86 -382 261 -463 523 -25 82 -27 100 -27 273 0 172 2 191 27
273 93 304 291 495 582 563 98 22 264 14 354 -19z m-3235 -87 c37 -6 111 -29
165 -51 53 -22 129 -50 170 -61 77 -20 103 -18 224 18 15 5 17 -4 17 -100 0
-58 -2 -106 -5 -106 -3 0 -40 20 -83 44 -88 50 -186 85 -427 152 -174 48 -293
88 -309 105 -13 12 159 11 248 -1z"/>
<path d="M8592 2044 c-73 -19 -107 -39 -157 -89 -60 -59 -94 -131 -107 -226
-14 -95 -1 -212 33 -283 32 -69 102 -141 167 -173 53 -26 66 -28 172 -28 129
1 175 15 244 75 92 81 130 177 131 325 0 147 -26 225 -104 308 -85 91 -241
129 -379 91z m178 -237 c48 -24 70 -72 70 -154 0 -122 -41 -173 -140 -173 -96
0 -140 51 -140 165 0 77 25 136 68 159 33 19 108 20 142 3z"/>
<path d="M12115 3344 c-81 -8 -211 -38 -250 -57 -88 -44 -165 -121 -193 -192
-6 -16 -18 -59 -27 -94 -15 -60 -15 -141 -1 -1015 17 -1019 19 -1065 35 -1140
24 -109 113 -191 240 -221 64 -15 103 -17 270 -12 228 8 356 23 539 67 225 52
399 120 522 203 145 98 236 178 312 277 l27 35 1 -117 c0 -207 36 -306 133
-376 72 -50 157 -64 368 -60 232 5 269 16 349 98 87 88 89 99 101 615 11 420
11 430 32 447 50 39 192 61 283 42 l29 -6 1 -161 c0 -151 3 -171 33 -287 40
-150 71 -221 141 -326 143 -212 351 -355 609 -420 211 -52 342 -54 551 -7 159
35 245 71 358 147 88 59 232 188 232 208 0 4 4 8 8 8 5 0 10 -132 11 -293 3
-399 23 -479 139 -559 67 -46 133 -57 342 -58 205 0 266 10 332 56 100 69 138
172 138 373 l0 113 28 -6 c157 -33 244 -32 420 8 143 32 206 57 299 118 111
72 159 114 217 188 115 146 162 241 209 427 31 123 32 136 32 323 0 187 -2
201 -33 325 -72 286 -218 489 -457 634 -106 64 -296 118 -455 128 -90 6 -208
-11 -321 -47 -60 -18 -63 -18 -137 1 -108 27 -455 28 -554 1 -121 -34 -189
-109 -216 -240 l-16 -80 -45 50 c-44 49 -139 124 -237 186 -73 46 -194 88
-342 118 -109 22 -144 25 -247 21 -140 -6 -294 -39 -411 -88 -77 -32 -223
-124 -277 -174 -30 -28 -28 -29 -47 44 -27 103 -109 177 -228 206 -109 26
-280 17 -432 -24 -138 -37 -122 -36 -190 -17 -42 12 -105 16 -275 16 -236 -1
-305 -10 -371 -51 -30 -18 -38 -20 -44 -8 -23 40 -113 161 -155 207 -108 120
-363 282 -530 337 -83 27 -274 73 -375 90 -92 15 -393 27 -475 19z m484 -258
c457 -84 750 -289 903 -631 151 -338 98 -849 -116 -1132 -232 -307 -676 -473
-1262 -473 -166 0 -197 7 -213 49 -6 16 -17 412 -27 1039 -16 975 -16 1013 1
1052 22 49 90 97 149 104 22 3 55 8 71 10 65 9 413 -3 494 -18z m2291 -535
c77 -15 80 -25 80 -242 0 -242 5 -233 -148 -224 -232 14 -420 -64 -488 -203
-17 -33 -20 -83 -29 -495 l-10 -459 -28 -24 c-27 -23 -32 -24 -208 -24 -178 0
-180 0 -204 25 -18 17 -25 35 -25 62 0 21 -7 288 -15 593 -22 869 -22 905 0
930 17 19 29 20 246 20 224 0 228 0 243 -22 10 -14 16 -44 16 -77 l0 -54 44
45 c77 77 194 128 341 147 93 11 131 12 185 2z m1340 -39 c451 -148 683 -629
533 -1106 -66 -213 -203 -374 -398 -471 -143 -71 -222 -88 -405 -88 -139 0
-164 2 -245 26 -277 83 -460 253 -551 511 -58 160 -58 453 -1 611 87 241 262
420 492 504 115 41 181 51 335 47 130 -3 155 -6 240 -34z m2000 -7 c248 -80
418 -266 496 -545 15 -53 19 -102 19 -270 0 -184 -2 -213 -23 -285 -74 -258
-232 -436 -459 -518 -265 -96 -558 -38 -683 135 l-27 37 -6 -151 c-4 -83 -7
-235 -7 -338 0 -174 -1 -189 -21 -214 l-20 -26 -189 0 c-250 0 -234 -13 -238
192 -1 84 -9 524 -17 978 -19 1056 -20 956 10 985 24 25 24 25 240 25 216 0
216 0 240 -25 21 -20 25 -34 25 -87 l0 -63 25 37 c43 64 159 128 290 162 11 3
74 3 140 2 97 -3 136 -9 205 -31z"/>
<path d="M12380 1940 l0 -662 68 7 c338 36 553 202 627 486 24 91 25 303 1
384 -78 264 -294 422 -607 442 l-89 6 0 -663z m394 287 c68 -83 81 -126 80
-267 0 -120 -1 -128 -32 -195 -36 -77 -97 -146 -154 -176 -21 -10 -40 -19 -43
-19 -3 0 -5 171 -5 380 l0 380 59 -30 c35 -17 74 -47 95 -73z"/>
<path d="M15885 2050 c-186 -38 -305 -195 -305 -400 1 -177 81 -309 228 -378
51 -24 69 -27 172 -27 110 0 118 2 181 32 80 40 150 111 187 191 32 70 41 200
22 293 -15 69 -68 158 -123 206 -86 75 -233 109 -362 83z m193 -256 c36 -27
72 -99 72 -146 0 -99 -70 -168 -171 -168 -105 0 -159 59 -159 174 0 74 25 120
80 149 46 24 139 19 178 -9z"/>
<path d="M17794 2050 c-105 -22 -204 -103 -249 -203 -31 -68 -45 -182 -33
-272 17 -135 97 -249 211 -301 55 -25 73 -29 162 -29 88 0 107 3 157 27 74 34
143 106 182 188 29 62 31 71 31 185 0 102 -4 129 -24 178 -32 81 -113 166
-191 201 -68 31 -174 42 -246 26z m151 -244 c48 -20 78 -83 78 -161 0 -105
-52 -165 -144 -165 -112 0 -172 135 -117 262 15 36 30 54 52 64 41 17 89 17
131 0z"/>
<path d="M1006 3265 c-14 -13 -26 -30 -27 -37 0 -7 -6 -71 -12 -143 l-12 -130
-110 -61 c-132 -73 -165 -102 -165 -142 0 -49 31 -74 163 -131 92 -40 128 -61
136 -79 8 -16 18 -22 33 -20 32 5 43 30 27 64 -15 30 -45 48 -202 118 -48 21
-87 42 -87 46 0 4 57 38 126 76 98 54 129 76 139 99 8 17 18 86 25 155 6 68
14 128 19 133 4 4 53 -35 109 -87 56 -53 113 -98 128 -102 16 -4 81 5 160 21
74 15 137 25 141 22 3 -4 -19 -61 -50 -128 -32 -67 -57 -134 -57 -151 0 -19
26 -74 71 -150 38 -67 66 -125 62 -129 -4 -4 -66 0 -138 9 -71 9 -140 16 -153
14 -13 -2 -60 -45 -119 -110 -53 -59 -101 -107 -107 -107 -5 0 -13 14 -16 31
-9 42 -18 54 -39 54 -29 0 -42 -23 -35 -61 14 -71 40 -98 96 -99 35 0 43 7
134 110 53 61 102 110 108 110 6 0 73 -8 148 -17 l137 -17 31 29 c40 39 39 76
-4 148 l-35 57 32 0 c18 0 95 -9 172 -20 569 -83 1110 -371 1602 -853 96 -94
127 -119 149 -119 29 0 64 32 64 59 0 42 -236 440 -289 488 -17 15 -26 17 -39
9 -30 -19 -24 -41 26 -111 74 -102 198 -313 185 -313 -5 0 -33 25 -63 56 -177
182 -469 402 -717 542 -322 181 -713 305 -1029 328 -124 8 -140 12 -153 38
-11 19 -10 28 3 53 13 25 23 31 63 37 368 47 709 20 1026 -85 109 -35 356
-146 408 -183 l23 -16 -33 -11 c-34 -12 -56 -49 -46 -79 3 -10 25 -34 48 -53
23 -19 65 -56 92 -81 28 -25 55 -45 61 -46 15 0 34 22 34 41 0 15 -61 78 -122
126 -31 23 -35 33 -14 33 28 0 66 41 66 70 0 33 -30 57 -162 128 -373 203
-850 287 -1337 236 l-63 -7 15 24 c9 13 23 44 31 67 13 37 14 48 2 76 -24 58
-52 61 -210 26 l-139 -31 -36 33 c-174 162 -181 168 -215 168 -21 0 -42 -9
-60 -25z"/>
<path d="M1327 3224 c-15 -16 -7 -53 14 -59 30 -10 58 19 43 43 -12 18 -45 28
-57 16z"/>
<path d="M1851 3081 c-36 -4 -58 -12 -65 -23 -16 -26 5 -54 35 -50 13 2 130 4
259 5 l235 2 0 30 c0 28 -3 30 -45 37 -54 8 -342 7 -419 -1z"/>
<path d="M2460 3035 c-19 -23 -3 -53 33 -60 18 -3 65 -16 106 -27 72 -21 74
-21 87 -3 8 10 14 22 14 27 0 16 -48 38 -125 58 -96 24 -99 24 -115 5z"/>
<path d="M831 3026 c-9 -11 -10 -20 -1 -35 13 -26 46 -27 59 -3 20 38 -31 71
-58 38z"/>
<path d="M855 2509 c-10 -30 18 -58 43 -43 9 6 17 22 17 35 0 34 -50 41 -60 8z"/>
<path d="M2259 2434 c-22 -26 0 -44 127 -103 65 -31 164 -80 218 -109 54 -28
107 -52 117 -52 10 0 21 10 25 22 5 17 0 27 -20 43 -47 38 -411 215 -441 215
-7 0 -18 -7 -26 -16z"/>
<path d="M1354 2375 c-14 -37 26 -69 53 -42 22 22 8 57 -23 57 -14 0 -27 -7
-30 -15z"/>
<path d="M2852 2128 c-25 -25 -10 -46 71 -104 45 -32 123 -93 172 -134 112
-94 113 -94 130 -80 27 22 16 48 -42 100 -76 68 -292 230 -307 230 -7 0 -17
-5 -24 -12z"/>
<path d="M2244 2050 c-29 -11 -35 -33 -18 -59 18 -25 69 -28 102 -5 58 40 -11
94 -84 64z"/>
<path d="M1990 2008 c-127 -27 -360 -96 -480 -140 -533 -197 -883 -458 -908
-675 -14 -128 95 -225 303 -269 149 -32 497 -16 730 32 93 20 107 28 103 63
-3 24 -6 26 -53 25 -27 0 -108 -11 -180 -23 -159 -27 -428 -39 -533 -22 -114
18 -200 50 -244 91 -33 32 -38 43 -38 80 0 64 34 124 118 206 233 230 704 440
1256 561 46 10 66 34 50 61 -13 20 -60 24 -124 10z"/>
<path d="M2261 1851 c-26 -26 -29 -48 -36 -272 l-7 -195 -190 -95 c-104 -52
-196 -101 -204 -110 -21 -23 -21 -75 0 -98 9 -10 107 -52 218 -92 110 -41 202
-78 203 -84 2 -5 15 -93 29 -195 32 -220 39 -243 72 -259 60 -27 62 -26 231
191 68 88 121 148 131 148 10 0 97 -13 195 -30 215 -36 240 -37 267 -8 38 41
27 68 -100 258 l-120 179 94 179 c52 99 97 189 100 200 18 55 -34 109 -91 96
-16 -4 -111 -31 -213 -60 l-185 -54 -156 160 c-136 141 -159 160 -187 160 -18
0 -40 -8 -51 -19z m377 -391 c13 0 94 23 320 90 50 15 92 25 92 22 0 -2 -43
-87 -95 -188 -52 -101 -95 -191 -95 -199 0 -8 52 -93 115 -188 63 -94 111
-173 106 -175 -5 -2 -91 11 -191 27 -100 17 -194 31 -209 31 -23 0 -43 -19
-127 -126 -54 -70 -115 -147 -134 -173 l-34 -46 -29 205 c-16 113 -35 214 -42
225 -8 13 -75 43 -196 88 -101 37 -190 67 -196 67 -34 0 3 23 180 111 l192 95
7 50 c3 27 7 106 7 175 1 69 4 146 7 170 l6 44 151 -152 c83 -84 157 -153 165
-153z"/>
<path d="M1005 1797 c-70 -23 -103 -65 -73 -95 18 -18 48 -14 93 11 70 39 54
109 -20 84z"/>
<path d="M709 1631 c-162 -110 -282 -244 -336 -373 -38 -89 -38 -200 -1 -278
49 -105 137 -182 283 -247 84 -38 238 -79 354 -94 112 -15 438 -15 571 0 198
23 522 94 556 122 19 15 14 49 -8 63 -13 8 -34 6 -80 -7 -35 -10 -128 -32
-208 -48 -467 -96 -921 -74 -1182 57 -342 171 -298 453 115 746 67 48 80 71
55 96 -21 21 -44 13 -119 -37z"/>
</g>
</svg>
