<?xml version="1.0" standalone="no"?>
<!DOCTYPE svg PUBLIC "-//W3C//DTD SVG 20010904//EN"
 "http://www.w3.org/TR/2001/REC-SVG-20010904/DTD/svg10.dtd">
<svg version="1.0" xmlns="http://www.w3.org/2000/svg"
 width="8000.000000pt" height="1500.000000pt" viewBox="0 0 8000.000000 1500.000000"
 preserveAspectRatio="xMidYMid meet">

<g transform="translate(0.000000,1500.000000) scale(0.100000,-0.100000)"
fill="#000000" stroke="none">
<path d="M22060 13880 c-423 -17 -661 -54 -1228 -190 -472 -112 -687 -184
-977 -325 -190 -93 -315 -169 -540 -330 -252 -180 -352 -262 -491 -400 -141
-140 -209 -223 -389 -475 -248 -347 -369 -583 -459 -892 -42 -145 -156 -637
-176 -761 -33 -202 -45 -444 -31 -646 14 -225 28 -308 102 -621 103 -440 140
-553 254 -779 74 -148 125 -229 269 -431 291 -405 435 -549 846 -845 91 -65
169 -122 173 -126 5 -4 -80 -28 -190 -54 -109 -26 -218 -56 -241 -66 -52 -22
-309 -205 -370 -263 -24 -23 -85 -97 -135 -166 -111 -152 -617 -911 -663 -996
-26 -46 -48 -119 -94 -313 -33 -140 -60 -277 -60 -305 0 -57 100 -499 126
-556 29 -64 227 -331 287 -386 112 -104 575 -440 796 -579 448 -280 944 -499
1441 -636 241 -66 812 -198 994 -229 715 -124 1504 -116 2146 20 228 49 673
157 803 196 328 98 666 251 915 414 313 205 561 400 732 576 128 132 193 212
363 452 141 198 202 298 272 445 78 164 117 289 200 636 108 454 110 471 110
826 0 353 -2 372 -106 807 -69 293 -110 435 -155 537 -14 30 -23 55 -22 57 2
1 48 -8 103 -22 89 -21 123 -24 303 -24 l202 0 0 -82 c1 -46 14 -850 30 -1788
l29 -1705 61 -255 c34 -140 69 -273 79 -295 11 -22 68 -107 128 -190 108 -149
110 -151 249 -252 76 -56 160 -114 186 -128 29 -16 144 -49 300 -88 l253 -62
705 0 705 0 253 63 c139 34 267 69 283 78 54 28 303 211 340 251 42 43 209
275 234 323 9 17 45 152 80 301 l64 269 25 1678 c15 922 29 1741 32 1820 l6
142 165 0 165 0 -5 -62 c-3 -35 -11 -164 -18 -286 -19 -351 9 -767 75 -1087
40 -194 155 -671 193 -795 76 -254 220 -577 363 -813 71 -119 282 -418 412
-585 99 -127 360 -391 476 -482 494 -385 817 -571 1227 -705 193 -64 796 -206
990 -235 232 -33 488 -45 687 -32 225 15 302 29 657 113 350 82 454 113 620
184 l124 54 41 -28 c58 -39 73 -44 341 -108 l240 -58 700 0 700 0 254 62 c140
35 271 71 291 82 68 35 322 225 353 263 l30 38 46 -49 c47 -49 271 -216 340
-252 21 -10 152 -47 292 -82 l254 -62 705 0 705 0 253 63 c139 34 266 68 281
76 44 23 283 196 324 235 37 35 204 260 245 331 23 39 140 514 148 600 2 30
20 818 40 1750 l35 1695 37 38 c41 43 166 109 313 167 129 50 250 65 534 63
153 0 255 -6 335 -18 232 -34 245 -34 528 34 139 33 262 66 275 72 39 21 323
228 343 251 43 48 225 308 238 340 8 18 42 149 75 290 l61 257 0 701 0 700
-61 258 c-33 141 -67 271 -74 288 -7 17 -64 102 -126 189 -103 143 -123 165
-204 225 -165 122 -252 180 -294 195 -23 8 -158 42 -299 76 l-257 61 -236 6
c-338 7 -613 -18 -907 -84 -280 -62 -687 -166 -789 -202 -109 -38 -111 -39
-144 -22 -19 10 -150 45 -292 79 l-258 61 -840 0 -840 0 -257 -61 c-141 -33
-270 -66 -287 -74 -17 -7 -79 -47 -137 -89 -59 -42 -111 -76 -117 -76 -6 0
-51 29 -100 64 -49 35 -106 73 -127 84 -22 11 -157 47 -300 81 l-261 61 -823
0 -822 0 -257 -61 c-238 -56 -328 -85 -375 -121 -18 -14 -29 -12 -115 24 -141
57 -280 97 -616 177 -406 95 -480 104 -830 98 -377 -7 -514 -29 -1145 -187
-327 -82 -629 -208 -898 -375 -200 -123 -574 -400 -695 -514 -39 -37 -71 -60
-76 -55 -5 5 -21 60 -35 122 -14 62 -32 128 -40 146 -13 31 -166 251 -231 331
-34 42 -306 243 -372 274 -21 10 -154 46 -296 80 l-258 61 -172 0 -172 0 0
248 0 247 -64 260 c-35 143 -72 278 -83 300 -12 22 -70 108 -131 192 l-110
152 -147 106 c-81 58 -162 112 -180 121 -18 9 -143 44 -279 78 l-246 60 -835
1 -835 0 -259 -63 c-143 -35 -274 -70 -290 -79 -45 -23 -275 -189 -319 -232
-35 -32 -162 -201 -230 -306 -19 -29 -44 -112 -89 -295 l-63 -255 3 -242 2
-241 -192 -5 c-181 -4 -202 -7 -337 -41 -79 -20 -146 -35 -148 -33 -2 2 22
108 52 236 31 128 58 251 61 274 5 31 -9 105 -50 282 -31 132 -63 260 -71 284
-19 57 -213 329 -290 406 -71 71 -367 286 -475 344 -111 59 -365 171 -549 240
-278 105 -565 185 -1146 320 -464 107 -840 153 -1389 171 -160 5 -300 9 -311
8 -11 -1 -103 -4 -205 -8z m860 -1010 c824 -64 1546 -249 2185 -559 238 -116
358 -210 417 -325 26 -51 35 -159 18 -212 -7 -21 -102 -284 -212 -584 -144
-392 -211 -560 -237 -599 -80 -119 -226 -174 -366 -138 -34 9 -132 49 -220 90
-611 285 -1181 431 -1825 468 -553 31 -981 -31 -1295 -188 -334 -168 -502
-405 -545 -769 -34 -280 57 -506 278 -690 316 -265 832 -457 2308 -858 194
-53 419 -118 500 -145 595 -197 1060 -469 1389 -812 285 -298 453 -652 521
-1104 26 -169 26 -570 0 -740 -71 -474 -259 -869 -584 -1229 -539 -598 -1423
-968 -2497 -1046 -180 -13 -649 -13 -830 0 -539 39 -994 131 -1491 301 -537
184 -1020 440 -1481 785 -233 175 -288 240 -300 356 -10 103 15 152 320 613
302 456 351 516 451 561 136 61 216 44 413 -90 457 -310 956 -550 1383 -665
455 -123 1171 -170 1599 -106 498 75 855 313 938 628 22 81 21 258 -1 351 -22
94 -86 212 -149 276 -107 109 -361 251 -617 343 -136 49 -516 160 -1175 342
-680 188 -1020 312 -1471 538 -907 455 -1427 1113 -1561 1977 -25 164 -25 624
0 795 47 316 127 568 262 834 162 320 406 620 690 851 219 178 579 379 875
489 369 136 802 229 1215 261 77 6 160 12 185 14 85 7 775 -3 910 -14z m7182
-783 c61 -30 108 -80 134 -144 40 -94 42 -147 28 -873 -6 -382 -11 -696 -10
-697 1 -1 312 -6 692 -11 687 -9 689 -9 749 -32 79 -31 154 -105 186 -185 l24
-60 0 -655 0 -655 -29 -63 c-31 -67 -81 -119 -146 -152 -94 -48 -121 -50 -824
-63 -366 -7 -668 -16 -672 -19 -3 -4 -23 -1046 -44 -2315 -42 -2550 -34 -2367
-105 -2465 -25 -34 -52 -55 -102 -80 l-68 -33 -730 0 c-721 0 -731 0 -776 21
-96 45 -156 123 -178 234 -6 35 -24 887 -47 2330 -20 1251 -37 2276 -38 2276
0 1 -302 -4 -671 -11 -454 -9 -688 -10 -724 -3 -116 21 -202 86 -249 186 l-27
57 0 740 0 740 24 52 c31 71 111 144 186 173 l60 22 565 -1 c311 -1 618 -4
684 -8 l118 -6 -7 730 c-6 562 -5 742 4 781 26 106 98 178 210 208 35 10 242
12 886 11 l840 -2 57 -28z m15298 -1568 c137 -21 236 -94 282 -208 l23 -56 0
-725 0 -725 -24 -59 c-48 -120 -147 -189 -271 -190 -36 -1 -119 8 -185 19 -99
16 -167 20 -390 20 -172 0 -304 -5 -365 -13 -751 -106 -1290 -449 -1451 -923
-47 -141 -47 -130 -88 -2009 -43 -1951 -38 -1848 -100 -1940 -15 -23 -48 -56
-72 -72 -89 -60 -78 -59 -855 -56 l-709 3 -53 24 c-65 29 -134 104 -156 168
-9 26 -19 77 -22 113 -3 36 -39 1445 -79 3133 -67 2775 -72 3073 -59 3124 27
105 82 163 187 200 49 17 108 18 907 18 960 0 919 3 993 -73 63 -65 70 -98 76
-365 l6 -237 55 72 c73 96 212 233 313 309 361 269 849 418 1517 463 91 6 451
-4 520 -15z m-9275 -68 c380 -64 749 -216 1014 -419 92 -69 242 -217 299 -293
24 -31 62 -91 86 -134 l44 -77 4 299 c3 220 8 307 18 333 36 94 106 157 203
182 41 10 220 13 882 13 944 0 900 4 993 -80 57 -51 88 -115 100 -205 8 -53
-127 -5912 -141 -6150 -9 -159 -62 -252 -175 -307 l-57 -28 -709 -3 c-778 -3
-770 -4 -853 57 -26 19 -51 50 -69 88 l-29 58 -5 309 -5 309 -39 -59 c-263
-398 -770 -732 -1301 -857 -223 -53 -318 -62 -625 -62 -337 0 -503 18 -787 85
-1091 258 -1917 1041 -2277 2159 -121 375 -174 712 -183 1167 -16 746 113
1354 409 1934 482 942 1358 1559 2393 1684 190 23 208 24 460 21 174 -3 259
-9 350 -24z m-13345 -441 c166 -12 360 -36 460 -57 171 -34 570 -182 855 -316
129 -61 161 -71 397 -126 165 -39 279 -61 317 -61 78 0 548 111 613 144 l47
25 3 -457 c2 -251 2 -458 2 -460 -1 -2 -39 24 -85 56 -119 85 -253 164 -410
243 -330 166 -551 244 -1170 413 -579 158 -958 268 -1219 356 -251 84 -605
219 -596 227 21 21 562 30 786 13z"/>
<path d="M35897 8459 c-532 -61 -947 -356 -1172 -832 -169 -356 -220 -875
-130 -1314 102 -498 376 -878 780 -1081 259 -129 603 -184 950 -152 451 43
797 228 1045 558 231 307 334 656 334 1132 0 418 -72 723 -239 1005 -238 405
-598 629 -1097 684 -110 12 -368 12 -471 0z m538 -1028 c102 -48 143 -94 208
-230 63 -134 71 -195 64 -496 l-5 -220 -36 -83 c-72 -166 -134 -239 -251 -294
l-70 -33 -215 0 -215 0 -67 32 c-111 52 -161 108 -232 253 l-61 125 0 285 0
285 38 83 c55 120 74 151 130 209 65 67 166 115 262 124 39 4 138 5 220 2 148
-5 151 -5 230 -42z"/>
<path d="M50630 13829 c-217 -8 -464 -26 -569 -40 -83 -10 -551 -119 -651
-150 -113 -35 -202 -85 -371 -205 -234 -166 -255 -186 -391 -373 -167 -229
-183 -267 -265 -606 l-67 -280 -3 -200 c-4 -197 122 -8088 131 -8195 4 -53
104 -493 128 -561 6 -19 18 -45 27 -59 27 -43 193 -274 215 -298 25 -29 282
-216 341 -249 26 -14 153 -50 321 -90 l279 -67 495 0 c836 0 1456 51 2090 170
177 33 759 167 960 220 683 181 1285 440 1765 759 177 118 468 332 605 444
231 189 480 451 664 698 50 67 92 120 94 118 2 -2 10 -230 17 -507 l13 -503
62 -260 c34 -143 69 -273 77 -290 18 -34 156 -232 214 -305 23 -29 100 -92
196 -161 180 -129 165 -124 530 -208 l222 -52 683 3 683 3 255 63 c140 35 271
72 290 84 71 41 296 208 331 245 49 52 218 290 237 333 23 55 131 518 137 590
3 36 21 823 41 1750 l35 1685 37 39 c25 27 78 58 167 101 170 81 230 101 350
116 149 19 513 16 665 -5 182 -25 173 -21 167 -70 -34 -246 -44 -768 -19 -996
31 -281 139 -795 238 -1139 90 -309 244 -645 418 -911 98 -150 336 -476 424
-580 93 -111 305 -319 413 -407 123 -100 496 -364 614 -435 233 -140 538 -276
790 -353 113 -34 485 -126 729 -180 519 -114 1100 -123 1616 -24 109 21 425
95 660 154 426 107 820 288 1172 536 185 131 371 271 458 344 128 108 364 356
458 479 45 60 82 107 83 105 0 -2 11 -575 24 -1274 l23 -1270 56 -240 c31
-132 64 -262 73 -288 13 -43 187 -300 247 -366 22 -24 303 -229 344 -250 12
-7 145 -41 295 -76 l272 -65 673 0 672 0 258 61 c141 33 280 71 307 83 28 13
116 71 196 130 l147 106 110 152 c60 84 117 168 126 186 9 18 44 144 78 280
l60 247 8 270 c5 149 9 379 9 513 1 133 3 242 6 242 2 0 71 -16 152 -35 200
-48 356 -73 548 -86 242 -17 571 2 815 47 126 23 659 150 780 185 222 65 484
181 685 302 122 74 439 299 578 410 128 103 319 294 423 423 85 106 323 437
391 544 135 213 262 486 353 759 56 168 196 731 239 961 50 269 71 529 71 889
0 339 -22 603 -71 876 -17 89 -156 686 -185 787 -98 352 -261 713 -447 991
-360 537 -572 768 -972 1059 -407 297 -637 424 -971 538 -137 47 -663 178
-875 219 -175 33 -384 51 -606 51 -321 0 -424 -14 -853 -116 -297 -70 -404
-100 -519 -146 l-74 -29 -56 25 c-31 13 -172 52 -313 85 l-258 61 -821 0 -821
0 -255 -60 c-141 -34 -271 -67 -290 -75 -35 -15 -220 -143 -313 -216 -54 -42
-260 -321 -284 -385 -29 -76 -129 -520 -135 -603 l-6 -83 -55 68 c-85 107
-303 327 -425 429 -250 210 -635 472 -872 593 -316 160 -513 229 -960 337
-345 83 -460 107 -613 129 -396 57 -928 44 -1300 -33 -184 -38 -656 -152 -775
-187 -267 -80 -603 -230 -833 -374 -216 -135 -601 -421 -724 -538 l-56 -53
-11 49 c-5 26 -31 134 -56 240 -52 212 -43 196 -212 426 -87 118 -90 122 -253
238 -91 65 -185 125 -210 133 -24 8 -159 43 -300 76 l-255 61 -243 6 c-337 7
-605 -18 -900 -84 -280 -62 -687 -166 -789 -202 -109 -38 -111 -39 -144 -22
-19 10 -151 45 -294 79 l-260 61 -838 0 -838 0 -257 -61 c-141 -33 -271 -67
-290 -75 -18 -7 -87 -52 -153 -100 -66 -48 -122 -85 -124 -82 -3 2 -44 65 -93
139 -482 734 -849 1101 -1607 1604 -440 292 -932 513 -1500 675 -224 63 -847
211 -1054 250 -566 105 -1201 146 -1861 119z m1045 -1009 c921 -79 1688 -277
2370 -609 490 -239 846 -490 1210 -855 312 -313 545 -636 743 -1032 333 -664
483 -1435 444 -2281 -35 -758 -184 -1410 -455 -1995 -102 -220 -288 -516 -454
-723 -172 -216 -469 -503 -700 -678 -667 -505 -1598 -876 -2638 -1051 -611
-103 -1115 -140 -1900 -141 -506 0 -555 1 -618 19 -78 21 -134 59 -177 118
-65 90 -55 -251 -131 4268 -38 2269 -67 4165 -63 4214 22 330 183 539 511 662
127 48 346 76 768 98 145 7 965 -3 1090 -14z m10215 -2301 c137 -21 236 -94
282 -208 l23 -56 0 -725 0 -725 -23 -56 c-49 -121 -150 -193 -272 -194 -36 0
-119 9 -185 20 -165 28 -610 28 -790 2 -492 -73 -886 -248 -1151 -512 -168
-167 -252 -315 -295 -520 -18 -82 -23 -251 -59 -1885 -23 -1057 -44 -1813 -50
-1838 -24 -100 -79 -169 -170 -211 l-55 -26 -730 0 -730 0 -53 24 c-99 44
-165 143 -178 266 -3 27 -38 1437 -79 3132 -67 2803 -73 3087 -59 3139 27 104
73 155 176 197 53 22 57 22 883 25 949 3 941 4 1021 -70 69 -64 77 -96 83
-371 l6 -239 49 67 c66 90 214 237 314 313 361 271 851 421 1522 466 91 6 451
-4 520 -15z m4840 -14 c706 -79 1354 -350 1870 -783 139 -117 382 -370 486
-508 346 -454 564 -948 668 -1514 48 -264 60 -410 60 -755 0 -343 -12 -492
-59 -751 -154 -830 -588 -1565 -1210 -2047 -538 -417 -1191 -660 -1930 -718
-208 -16 -625 -6 -820 20 -1097 148 -1978 701 -2491 1564 -285 478 -444 982
-494 1562 -15 180 -12 597 5 781 60 629 248 1168 581 1669 273 412 635 757
1056 1006 471 280 1014 446 1588 488 163 12 519 5 690 -14z m8449 -50 c565
-71 1054 -269 1493 -601 146 -111 432 -401 542 -549 360 -489 583 -1065 665
-1725 77 -612 43 -1245 -96 -1785 -300 -1172 -1073 -1984 -2158 -2270 -298
-79 -588 -111 -933 -102 -405 10 -702 75 -1017 221 -296 139 -562 374 -731
648 l-44 72 -1 -154 c0 -85 -8 -720 -18 -1410 -17 -1221 -18 -1257 -39 -1312
-26 -72 -54 -112 -105 -149 -88 -64 -77 -63 -791 -67 -433 -2 -672 1 -719 8
-99 15 -160 45 -210 100 -64 71 -79 126 -85 305 -14 473 -146 8321 -140 8376
14 138 88 236 205 275 55 18 98 19 888 19 799 0 832 -1 895 -20 51 -15 76 -31
117 -70 76 -74 84 -109 92 -394 l6 -233 50 73 c222 325 661 599 1127 703 112
25 291 52 398 60 111 8 488 -4 609 -19z"/>
<path d="M51443 10722 c-8 -5 -14 -581 -22 -2262 -6 -1240 -11 -2472 -11
-2738 l0 -482 88 6 c972 64 1691 344 2182 850 390 401 621 924 702 1584 20
165 18 735 -4 877 -122 799 -517 1391 -1181 1773 -411 236 -893 362 -1490 390
-244 12 -249 12 -264 2z m1125 -1188 c220 -103 285 -147 423 -284 138 -136
182 -197 263 -365 134 -274 151 -366 150 -780 -1 -482 -29 -626 -189 -951 -99
-201 -137 -255 -276 -392 -123 -123 -175 -158 -374 -258 l-150 -76 -3 244 c-2
133 0 847 4 1585 6 1233 8 1341 23 1336 9 -4 67 -30 129 -59z"/>
<path d="M66135 8459 c-207 -25 -416 -88 -583 -174 -144 -75 -250 -153 -367
-270 -124 -125 -210 -244 -286 -400 -126 -258 -179 -508 -179 -849 0 -596 215
-1058 639 -1377 551 -413 1422 -427 2019 -32 313 207 569 604 651 1009 67 332
49 690 -49 996 -41 128 -156 354 -237 467 -183 255 -447 446 -760 551 -187 62
-313 81 -558 85 -115 2 -246 -1 -290 -6z m395 -988 c83 -7 107 -14 193 -54
139 -66 199 -125 270 -270 30 -62 60 -130 66 -152 14 -52 14 -398 0 -450 -6
-22 -33 -86 -60 -142 -66 -135 -134 -207 -250 -263 -140 -68 -164 -72 -388
-68 l-197 3 -105 51 c-143 70 -213 139 -282 282 -47 95 -51 110 -59 210 -10
120 -3 356 13 417 22 83 91 208 147 267 60 63 102 91 202 134 89 38 257 51
450 35z"/>
<path d="M74062 8459 c-119 -14 -282 -55 -395 -98 -461 -181 -804 -613 -906
-1144 -60 -311 -52 -677 20 -962 76 -298 280 -643 481 -815 301 -256 695 -386
1108 -366 233 11 411 54 607 146 375 176 653 493 798 910 121 348 132 821 29
1183 -178 627 -652 1055 -1264 1142 -113 16 -357 18 -478 4z m483 -1030 c63
-31 99 -57 148 -107 66 -69 86 -101 144 -237 35 -79 35 -82 40 -255 7 -242 -2
-302 -67 -436 -69 -142 -136 -215 -258 -276 l-87 -43 -165 -3 -165 -3 -100 49
c-69 34 -112 63 -140 93 -41 45 -106 160 -145 259 -31 77 -43 262 -30 450 l10
144 54 111 c64 133 123 198 229 252 86 43 157 54 330 47 114 -4 122 -6 202
-45z"/>
<path d="M4341 13588 c-104 -16 -212 -93 -261 -188 -25 -49 -38 -120 -55 -305
-17 -188 -49 -517 -71 -734 -8 -85 -19 -161 -23 -170 -5 -8 -83 -56 -173 -105
-584 -322 -812 -453 -843 -483 -135 -131 -150 -338 -35 -483 55 -69 111 -97
770 -380 332 -142 354 -154 368 -184 6 -15 12 -34 12 -42 0 -9 8 -32 17 -51
45 -96 198 -99 259 -6 55 84 -21 289 -137 368 -49 34 -65 41 -619 282 -195 85
-374 163 -398 174 -43 21 -59 50 -48 87 4 12 172 111 489 287 265 147 497 280
515 294 52 42 100 119 117 191 8 36 29 209 45 385 66 705 70 738 87 757 29 32
61 22 126 -40 34 -32 132 -123 217 -202 85 -80 191 -179 235 -221 44 -42 112
-105 150 -140 39 -35 89 -81 112 -103 113 -104 215 -130 377 -95 50 11 111 24
136 29 25 5 86 18 135 30 50 11 110 25 135 30 25 5 74 16 110 24 36 8 130 28
210 46 80 17 159 35 175 40 70 21 125 23 145 5 11 -10 20 -27 20 -39 0 -11
-47 -122 -104 -246 -57 -124 -118 -254 -134 -290 -17 -36 -70 -151 -120 -257
-117 -250 -126 -276 -120 -374 5 -88 21 -124 153 -344 39 -66 96 -163 127
-215 30 -52 100 -171 155 -265 151 -257 153 -260 153 -282 0 -49 -52 -62 -174
-44 -52 8 -124 17 -281 35 -16 2 -104 13 -195 25 -422 53 -507 62 -555 56 -55
-8 -120 -33 -166 -66 -24 -17 -301 -326 -702 -782 -71 -80 -87 -90 -121 -77
-29 11 -43 52 -72 210 -15 79 -23 100 -49 129 -28 31 -39 35 -91 38 -69 5
-111 -16 -144 -69 -25 -42 -25 -60 4 -210 32 -164 56 -223 111 -281 113 -117
289 -148 428 -74 65 34 46 14 521 551 l299 339 61 -6 c34 -4 284 -34 556 -67
366 -45 511 -59 555 -54 187 20 331 206 309 399 -7 58 -32 112 -113 250 -59
98 -110 185 -149 253 -13 24 -22 46 -18 49 9 9 422 -24 646 -52 331 -41 655
-97 930 -161 63 -14 140 -32 170 -39 78 -18 275 -71 415 -111 656 -192 1261
-431 1905 -754 148 -74 545 -289 590 -320 14 -9 63 -38 110 -65 414 -233 1139
-735 1580 -1094 179 -145 265 -215 270 -221 3 -3 50 -43 105 -90 306 -259 579
-513 945 -879 200 -199 319 -310 345 -322 55 -26 143 -25 200 2 60 28 131 106
145 160 22 82 10 127 -95 338 -95 192 -275 532 -340 641 -18 30 -56 96 -85
145 -205 351 -617 959 -687 1015 -19 14 -40 20 -79 20 -48 0 -58 -4 -94 -36
-49 -45 -67 -96 -51 -146 10 -30 86 -141 168 -248 41 -53 253 -372 339 -510
236 -378 518 -890 491 -890 -1 0 -86 82 -187 181 -486 476 -1046 960 -1550
1339 -1150 863 -2299 1477 -3540 1890 -234 78 -266 88 -495 154 -342 99 -908
219 -1251 266 -44 6 -89 12 -100 14 -132 25 -727 76 -890 76 -74 0 -94 3 -106
18 -31 36 -110 184 -110 205 0 12 23 72 52 133 58 125 35 109 190 133 78 12
460 58 545 65 384 34 563 41 1015 40 330 -1 623 -15 870 -40 301 -31 537 -65
880 -130 136 -26 473 -103 565 -129 28 -8 100 -29 160 -45 308 -86 747 -242
1025 -365 58 -25 128 -56 155 -68 123 -53 502 -246 649 -329 209 -119 270
-158 260 -167 -5 -5 -52 -23 -104 -42 -79 -28 -104 -42 -145 -84 -74 -73 -95
-172 -58 -267 21 -56 39 -75 153 -166 151 -120 284 -238 440 -392 148 -145
169 -160 221 -160 93 0 178 125 138 203 -30 56 -299 318 -489 477 -69 57 -125
108 -125 114 0 6 44 26 97 46 53 19 117 49 141 66 55 39 89 107 95 192 4 53 0
70 -23 117 -14 30 -41 66 -58 79 -153 117 -791 461 -1132 610 -839 369 -1693
601 -2620 711 -199 24 -456 46 -700 60 -133 8 -776 8 -895 1 -47 -4 -134 -8
-195 -11 -60 -3 -123 -7 -140 -10 -16 -2 -73 -7 -125 -10 -93 -5 -498 -50
-552 -61 -35 -7 -36 6 -3 74 107 223 173 375 185 427 23 103 -17 229 -101 315
-51 53 -113 86 -192 102 -57 12 -106 5 -337 -47 -36 -9 -96 -22 -135 -30 -38
-8 -99 -22 -135 -30 -36 -9 -94 -22 -130 -29 -36 -8 -99 -22 -140 -31 -329
-74 -316 -72 -348 -43 -23 21 -196 182 -726 676 -43 40 -101 84 -127 98 -59
30 -146 42 -218 32z"/>
<path d="M5552 13346 c-90 -32 -127 -124 -83 -206 52 -98 187 -107 246 -16 71
108 -44 265 -163 222z"/>
<path d="M8210 12757 c-3 -3 -68 -8 -145 -11 -170 -8 -329 -21 -494 -41 -142
-18 -171 -32 -196 -99 -40 -103 42 -212 151 -201 53 6 249 25 304 30 366 33
1095 38 1380 10 273 -28 286 -28 333 -7 59 26 81 61 81 128 0 57 -17 91 -65
126 -23 17 -82 25 -414 53 -83 7 -929 18 -935 12z"/>
<path d="M10255 12580 c-11 -4 -33 -22 -49 -39 -24 -25 -30 -42 -34 -88 -3
-49 0 -64 20 -93 31 -46 50 -54 212 -90 133 -30 357 -90 542 -146 l90 -27 47
21 c78 34 108 114 73 195 -19 46 -43 64 -127 93 -180 62 -671 185 -731 183
-13 0 -32 -4 -43 -9z"/>
<path d="M3483 12540 c-80 -36 -104 -117 -60 -200 85 -160 317 -54 252 116
-32 83 -115 120 -192 84z"/>
<path d="M3635 10441 c-93 -23 -139 -107 -106 -194 16 -41 66 -85 105 -93 50
-9 119 19 148 58 47 67 16 178 -63 218 -41 22 -40 21 -84 11z"/>
<path d="M9425 10081 c-98 -45 -112 -197 -23 -251 18 -11 83 -40 143 -64 61
-24 137 -56 170 -71 33 -15 94 -43 135 -62 41 -19 107 -48 145 -66 225 -102
661 -328 1055 -546 112 -62 175 -91 197 -91 111 0 190 133 131 220 -24 35
-161 120 -413 255 -60 32 -146 79 -190 102 -396 215 -1222 594 -1292 593 -10
0 -36 -9 -58 -19z"/>
<path d="M5670 9842 c-92 -46 -106 -168 -28 -240 100 -92 265 11 229 143 -26
96 -117 140 -201 97z"/>
<path d="M11828 8761 c-38 -35 -42 -43 -46 -98 -4 -55 -2 -62 26 -95 17 -19
89 -74 159 -123 400 -278 930 -696 1204 -952 81 -77 133 -87 205 -42 33 20 74
89 74 126 0 43 -49 106 -165 209 -342 304 -737 614 -1137 892 -161 112 -181
122 -239 122 -32 0 -48 -7 -81 -39z"/>
<path d="M9375 8456 c-116 -20 -170 -63 -185 -148 -18 -95 52 -190 145 -199
36 -4 173 9 235 22 98 21 150 83 150 179 0 55 -27 102 -79 137 -29 20 -46 23
-115 22 -45 -1 -112 -7 -151 -13z"/>
<path d="M8510 8315 c-55 -13 -254 -57 -340 -75 -25 -5 -133 -30 -240 -55
-188 -43 -252 -60 -480 -123 -58 -16 -159 -44 -225 -62 -66 -18 -138 -38 -160
-45 -22 -7 -128 -41 -235 -74 -107 -34 -238 -77 -290 -95 -52 -19 -167 -60
-255 -91 -157 -55 -270 -97 -310 -115 -11 -4 -63 -25 -115 -45 -52 -21 -109
-44 -127 -51 -17 -8 -33 -14 -36 -14 -11 0 -505 -219 -632 -280 -161 -77 -348
-171 -395 -197 -19 -11 -89 -48 -155 -83 -66 -35 -210 -118 -320 -183 -655
-392 -1136 -791 -1429 -1189 -93 -125 -225 -374 -252 -473 -62 -230 -52 -409
34 -596 126 -274 397 -478 807 -608 130 -42 152 -48 325 -85 607 -132 1508
-124 2510 23 395 58 871 151 931 181 53 27 82 72 87 136 4 44 0 61 -22 98 -28
49 -90 86 -143 86 -17 0 -143 -22 -279 -50 -547 -108 -1001 -169 -1579 -210
-186 -13 -695 -13 -865 1 -822 65 -1322 265 -1462 584 -37 83 -43 152 -24 260
39 228 205 486 492 765 214 208 395 353 679 545 282 190 766 470 1015 587 41
20 140 67 220 106 269 130 825 363 1070 448 52 18 154 54 225 79 319 114 642
214 1040 321 55 15 123 33 150 41 148 42 269 70 695 163 253 55 287 66 324
110 32 39 40 67 34 131 -12 121 -111 170 -268 134z"/>
<path d="M9475 7667 c-83 -33 -147 -90 -185 -166 -25 -50 -35 -155 -45 -476
-3 -110 -10 -301 -15 -425 -5 -124 -14 -371 -20 -550 -6 -179 -13 -339 -16
-357 -4 -30 -14 -36 -232 -144 -692 -342 -1311 -654 -1347 -679 -117 -80 -163
-251 -104 -380 61 -130 73 -137 534 -305 50 -18 135 -49 190 -70 163 -59 207
-75 275 -100 36 -13 108 -39 160 -58 52 -20 139 -52 192 -71 54 -20 142 -52
195 -72 54 -20 123 -45 153 -56 89 -32 96 -39 103 -105 3 -32 11 -87 16 -123
32 -201 42 -272 51 -335 5 -38 17 -115 25 -170 9 -55 24 -161 35 -235 11 -74
31 -209 45 -300 14 -91 34 -230 45 -310 31 -216 58 -285 138 -348 69 -55 127
-74 212 -70 88 4 154 32 209 87 20 20 83 97 141 170 58 74 200 254 315 401
116 147 304 388 420 535 l209 267 51 -5 c27 -3 291 -46 585 -96 1209 -204
1119 -192 1200 -167 92 28 160 88 206 181 29 61 27 195 -5 255 -21 39 -868
1309 -943 1414 -33 46 -34 60 -10 106 17 31 107 204 337 645 160 307 303 580
361 690 90 172 108 224 102 300 -12 148 -111 260 -259 293 -77 17 -73 18 -854
-205 -104 -30 -212 -60 -240 -68 -165 -47 -308 -88 -365 -105 -36 -10 -125
-35 -198 -56 l-134 -37 -237 239 c-130 131 -410 416 -621 631 -437 445 -435
444 -573 442 -40 0 -85 -6 -102 -12z m407 -654 c145 -148 418 -425 607 -618
189 -192 360 -360 380 -372 38 -24 105 -30 157 -14 16 5 47 14 69 20 308 87
788 223 815 231 62 18 424 122 455 130 95 26 157 43 217 61 115 35 131 81
-161 -476 -46 -88 -113 -216 -149 -285 -35 -69 -81 -156 -102 -195 -21 -38
-74 -140 -118 -225 -44 -85 -105 -204 -136 -263 -48 -93 -56 -115 -56 -163 l0
-55 476 -712 c262 -392 483 -719 490 -728 23 -26 18 -50 -8 -44 -23 5 -637
109 -738 125 -30 4 -152 25 -270 45 -118 20 -240 41 -270 45 -30 5 -135 22
-234 39 -98 17 -192 31 -210 31 -74 -1 -86 -14 -649 -730 -296 -377 -544 -685
-550 -685 -8 0 -18 43 -29 115 -10 63 -33 221 -52 350 -19 129 -56 375 -81
545 -26 171 -50 337 -55 370 -26 189 -51 335 -60 361 -14 35 -46 71 -81 89
-20 11 -379 145 -654 246 -179 65 -256 93 -340 124 -107 39 -258 94 -355 130
-36 13 -110 40 -165 60 -55 20 -108 39 -117 42 -10 3 -18 8 -18 12 0 4 348
180 773 391 424 212 789 397 809 413 63 47 65 63 83 547 8 239 20 536 25 660
5 124 12 317 16 430 6 188 8 220 19 220 2 0 122 -120 267 -267z"/>
<path d="M4200 7410 c-42 -12 -298 -137 -330 -160 -74 -52 -90 -163 -36 -235
53 -69 113 -88 195 -61 84 27 317 146 349 177 127 125 -6 333 -178 279z"/>
<path d="M3215 6886 c-46 -20 -445 -295 -580 -399 -240 -185 -515 -446 -682
-647 -355 -426 -537 -841 -550 -1255 -4 -127 -2 -168 17 -265 60 -320 183
-550 424 -799 211 -216 468 -383 882 -571 40 -19 135 -53 370 -135 65 -23 124
-39 401 -110 130 -33 470 -97 583 -110 30 -3 84 -10 120 -15 240 -33 566 -56
900 -65 235 -6 801 8 962 24 51 5 161 15 243 21 132 10 411 42 605 70 36 5
103 14 150 20 47 7 141 22 210 35 311 58 362 68 480 91 69 14 170 36 225 49
55 13 152 36 215 51 63 14 185 46 270 70 85 23 190 52 234 64 137 36 185 72
207 153 27 102 -58 207 -169 207 -36 0 -57 -5 -222 -51 -249 -69 -388 -104
-630 -159 -202 -46 -261 -58 -385 -80 -27 -5 -111 -20 -185 -35 -161 -31 -564
-90 -745 -110 -534 -58 -748 -69 -1250 -69 -421 0 -627 9 -900 39 -249 28
-311 36 -420 57 -60 11 -159 28 -220 39 -111 19 -439 101 -550 138 -248 82
-352 123 -585 234 -87 41 -304 183 -401 262 -108 87 -250 237 -312 329 -187
275 -226 631 -107 986 58 174 206 429 366 630 110 138 401 418 609 585 105 83
276 210 380 280 213 144 239 165 266 217 32 63 20 126 -35 186 -46 51 -126 67
-191 38z"/>
</g>
</svg>
