<?xml version="1.0" standalone="no"?>
<!DOCTYPE svg PUBLIC "-//W3C//DTD SVG 20010904//EN"
 "http://www.w3.org/TR/2001/REC-SVG-20010904/DTD/svg10.dtd">
<svg version="1.0" xmlns="http://www.w3.org/2000/svg"
 width="649.000000pt" height="644.000000pt" viewBox="0 0 649.000000 644.000000"
 preserveAspectRatio="xMidYMid meet">

<g transform="translate(0.000000,644.000000) scale(0.100000,-0.100000)"
fill="#000000" stroke="none">
<path d="M1524 5746 c-17 -8 -44 -30 -59 -50 -26 -34 -28 -47 -51 -283 -15
-156 -29 -252 -37 -259 -6 -7 -100 -61 -207 -120 -107 -59 -209 -122 -227
-139 -58 -58 -54 -156 10 -212 18 -15 130 -71 250 -123 200 -87 219 -97 224
-123 6 -31 37 -57 68 -57 26 0 65 39 65 66 -1 27 -34 96 -56 116 -10 9 -120
61 -244 115 -143 62 -226 104 -228 114 -2 12 59 50 217 138 228 127 257 149
268 213 2 18 15 134 26 258 19 189 25 225 38 228 10 2 88 -64 199 -167 132
-124 192 -174 219 -182 34 -10 66 -5 272 40 251 55 264 57 274 40 4 -5 -41
-114 -100 -241 -94 -202 -107 -236 -102 -270 3 -25 49 -114 131 -255 101 -173
124 -219 114 -229 -10 -9 -69 -5 -263 19 -243 29 -251 30 -287 13 -25 -12 -92
-80 -200 -202 -99 -113 -168 -184 -178 -182 -10 2 -21 27 -32 73 -23 96 -63
121 -114 70 -27 -27 -27 -47 1 -150 28 -101 131 -153 215 -110 17 9 103 97
192 198 89 100 165 183 169 185 4 2 115 -10 247 -27 179 -22 249 -27 275 -20
70 19 127 109 111 176 -4 15 -31 69 -60 120 -30 50 -54 96 -54 102 0 6 10 9
23 7 12 -3 63 -8 112 -11 551 -38 1211 -247 1782 -565 473 -264 881 -576 1336
-1020 177 -172 180 -175 223 -175 35 0 49 6 74 30 55 56 52 72 -47 266 -124
240 -251 448 -390 637 -45 61 -58 72 -82 72 -30 0 -71 -38 -71 -65 0 -7 30
-55 66 -106 139 -197 364 -570 364 -605 0 -5 -51 41 -112 102 -864 851 -1925
1404 -2948 1539 -108 14 -345 35 -396 35 -16 0 -30 13 -49 45 l-26 46 25 54
c14 30 30 55 36 55 6 0 86 10 178 22 139 18 220 21 487 22 202 1 361 -4 430
-12 569 -66 995 -199 1462 -455 62 -34 113 -64 113 -67 0 -3 -24 -16 -53 -30
-39 -19 -57 -35 -70 -62 -29 -59 -12 -94 81 -171 42 -35 114 -98 158 -140 58
-55 89 -77 108 -77 29 0 66 35 66 63 0 22 -105 133 -202 214 -37 32 -65 60
-60 64 4 4 24 12 44 18 53 17 88 62 88 114 -1 57 -18 76 -130 142 -470 277
-957 437 -1555 512 -195 24 -717 24 -929 0 -82 -9 -151 -15 -154 -13 -2 3 17
49 42 104 25 54 46 111 46 127 0 44 -38 112 -74 135 -49 30 -97 26 -345 -30
l-223 -50 -53 47 c-29 27 -111 103 -183 171 -72 67 -143 127 -157 132 -36 14
-84 12 -121 -4z"/>
<path d="M2080 5653 c-64 -23 -46 -123 22 -123 53 0 77 71 38 110 -20 20 -33
23 -60 13z"/>
<path d="M3035 5389 c-127 -12 -163 -24 -171 -56 -4 -16 -1 -37 7 -52 14 -24
19 -26 84 -24 259 8 692 10 750 4 91 -10 119 1 123 49 3 46 -7 59 -54 72 -50
13 -620 19 -739 7z"/>
<path d="M4081 5304 c-24 -31 -25 -35 -9 -68 10 -23 57 -46 94 -46 7 0 69 -16
138 -36 139 -40 171 -39 187 3 14 38 -3 71 -45 88 -42 18 -300 85 -326 85 -10
0 -28 -12 -39 -26z"/>
<path d="M1176 5294 c-22 -21 -20 -67 2 -87 26 -24 79 -22 92 2 15 30 12 66
-8 84 -23 21 -66 22 -86 1z"/>
<path d="M1230 4390 c-39 -39 -14 -110 39 -110 57 0 85 82 39 114 -30 21 -54
20 -78 -4z"/>
<path d="M3730 4240 c-22 -22 -27 -72 -7 -88 6 -5 71 -36 142 -67 158 -70 322
-151 516 -257 135 -72 149 -78 173 -67 15 7 29 23 32 36 14 54 2 66 -173 161
-269 146 -603 302 -648 302 -8 0 -24 -9 -35 -20z"/>
<path d="M2120 4140 c-24 -24 -26 -57 -4 -88 32 -45 104 -17 104 41 0 32 -32
67 -60 67 -11 0 -29 -9 -40 -20z"/>
<path d="M4784 3692 c-20 -13 -35 -52 -29 -73 4 -11 59 -56 123 -102 137 -96
279 -207 413 -324 102 -87 131 -99 162 -65 10 10 17 33 17 50 0 27 -14 43
-117 133 -122 104 -341 274 -450 347 -59 40 -95 50 -119 34z"/>
<path d="M3708 3553 c-33 -5 -68 -46 -68 -80 0 -33 42 -73 77 -73 102 2 171
45 158 99 -13 54 -61 70 -167 54z"/>
<path d="M3200 3461 c-484 -111 -950 -270 -1345 -460 -567 -273 -946 -582
-1064 -865 -20 -49 -25 -78 -26 -151 0 -79 3 -97 28 -148 79 -160 276 -265
589 -314 137 -21 516 -24 708 -4 292 29 647 92 683 121 31 25 29 86 -3 112
-28 23 -25 23 -235 -16 -790 -149 -1437 -89 -1592 146 -107 161 94 446 507
719 449 297 1128 566 1798 714 107 24 183 46 198 57 51 41 15 129 -52 127 -16
0 -103 -18 -194 -38z"/>
<path d="M3720 3182 c-29 -29 -39 -48 -44 -82 -6 -48 -26 -572 -26 -677 l0
-63 -347 -175 c-238 -119 -354 -183 -367 -200 -40 -58 -25 -155 30 -192 13 -8
179 -72 371 -143 302 -111 349 -131 355 -151 4 -13 30 -179 58 -369 28 -190
56 -358 62 -373 31 -79 145 -105 212 -48 10 9 121 147 246 307 l228 290 378
-64 c371 -62 379 -63 421 -47 60 23 88 73 84 152 -1 12 -95 164 -211 338 -115
173 -210 320 -210 326 0 6 79 162 175 347 104 201 175 348 175 365 0 67 -67
137 -131 137 -22 0 -201 -46 -397 -101 l-357 -101 -258 263 c-142 145 -271
272 -285 281 -17 11 -46 18 -76 18 -43 0 -53 -4 -86 -38z m381 -412 c241 -246
267 -270 297 -270 18 0 191 45 384 100 194 55 353 98 354 97 2 -1 -76 -153
-172 -336 -96 -184 -174 -345 -174 -358 0 -14 86 -152 211 -339 116 -174 209
-317 207 -318 -2 -2 -172 26 -378 60 -368 63 -375 63 -400 45 -14 -10 -125
-146 -248 -302 -123 -156 -227 -285 -230 -287 -4 -1 -32 161 -61 360 -29 200
-57 373 -62 386 -11 29 -24 35 -414 177 -176 64 -322 119 -324 121 -2 2 147
78 330 169 184 91 343 176 355 189 20 22 22 42 34 400 8 207 17 376 21 376 4
0 125 -122 270 -270z"/>
<path d="M1440 3079 c-81 -38 -110 -64 -110 -101 0 -34 39 -78 70 -78 28 0
150 56 177 82 31 29 30 78 0 106 -30 29 -58 27 -137 -9z"/>
<path d="M972 2810 c-450 -303 -688 -648 -670 -969 27 -456 541 -763 1392
-831 475 -38 1110 32 1661 182 124 34 152 48 165 84 13 34 -12 82 -46 90 -28
7 -30 7 -249 -49 -434 -111 -812 -160 -1240 -160 -302 0 -448 13 -670 58 -590
120 -909 392 -857 730 38 242 260 513 620 754 93 62 119 94 107 132 -8 24 -53
59 -76 59 -10 0 -72 -36 -137 -80z"/>
</g>
</svg>
